<svg width="110" height="43" viewBox="0 0 110 43" fill="none" xmlns="http://www.w3.org/2000/svg">
<path d="M65.4315 11.4284C62.6883 8.68522 59.4316 6.50912 55.8475 5.02452C52.2633 3.53992 48.4219 2.77582 44.5424 2.77582C40.6629 2.77582 36.8215 3.53992 33.2373 5.02452C29.6532 6.50912 26.3965 8.68522 23.6533 11.4284L44.5424 32.3174L65.4315 11.4284Z" fill="#FFD200"/>
<path d="M44.5686 32.3475C47.3118 35.0907 50.5684 37.2667 54.1526 38.7513C57.7367 40.2359 61.5782 41 65.4577 41C69.337 41 73.179 40.2359 76.763 38.7513C80.347 37.2667 83.604 35.0907 86.347 32.3475L65.4577 11.4584L44.5686 32.3475Z" fill="#06E07F"/>
<path d="M44.517 32.3429C41.7738 35.0861 38.5171 37.2621 34.933 38.7467C31.3488 40.2313 27.5074 40.9954 23.6279 40.9954C19.7484 40.9954 15.907 40.2313 12.3228 38.7467C8.73867 37.2621 5.48197 35.0861 2.73877 32.3429L23.6279 11.4538L44.517 32.3429Z" fill="#E3073C"/>
<path d="M65.4831 11.433C68.226 8.68982 71.483 6.51382 75.067 5.02922C78.651 3.54462 82.493 2.78052 86.372 2.78052C90.252 2.78052 94.093 3.54462 97.677 5.02922C101.261 6.51382 104.518 8.68982 107.261 11.433L86.372 32.3221L65.4831 11.433Z" fill="#1F84EF"/>
</svg>
