<svg width="25" height="25" viewBox="0 0 25 25" fill="none" xmlns="http://www.w3.org/2000/svg">
<path d="M13.4437 2.50073C14.5691 2.50259 15.1394 2.50855 15.6322 2.52322L15.8263 2.52956C16.0505 2.53753 16.2717 2.54753 16.5384 2.56003C17.6025 2.6092 18.3284 2.77753 18.9659 3.02503C19.625 3.2792 20.1817 3.62253 20.7375 4.17837C21.2925 4.7342 21.6359 5.29253 21.8909 5.95003C22.1375 6.5867 22.3059 7.31337 22.3559 8.37753C22.3678 8.6442 22.3774 8.8654 22.3853 9.08964L22.3916 9.28373C22.4062 9.77647 22.4129 10.3469 22.415 11.4723L22.4158 12.2179C22.4159 12.309 22.4159 12.403 22.4159 12.5L22.4158 12.7821L22.4152 13.5278C22.4133 14.6532 22.4074 15.2236 22.3927 15.7163L22.3863 15.9104C22.3784 16.1347 22.3684 16.3559 22.3559 16.6225C22.3067 17.6867 22.1375 18.4125 21.8909 19.05C21.6367 19.7092 21.2925 20.2659 20.7375 20.8217C20.1817 21.3767 19.6225 21.72 18.9659 21.975C18.3284 22.2217 17.6025 22.39 16.5384 22.44C16.2717 22.4519 16.0505 22.4616 15.8263 22.4694L15.6322 22.4757C15.1394 22.4904 14.5691 22.497 13.4437 22.4992L12.698 22.5C12.6069 22.5 12.5129 22.5 12.4159 22.5H12.1338L11.3881 22.4993C10.2627 22.4975 9.69235 22.4915 9.1996 22.4768L9.00552 22.4705C8.78127 22.4625 8.56007 22.4525 8.29341 22.44C7.22924 22.3909 6.50424 22.2217 5.86591 21.975C5.20757 21.7209 4.65007 21.3767 4.09424 20.8217C3.53841 20.2659 3.19591 19.7067 2.94091 19.05C2.69341 18.4125 2.52591 17.6867 2.47591 16.6225C2.46403 16.3559 2.45434 16.1347 2.44649 15.9104L2.4402 15.7163C2.42557 15.2236 2.4189 14.6532 2.41674 13.5278L2.41661 11.4723C2.41847 10.3469 2.42442 9.77647 2.43909 9.28373L2.44544 9.08964C2.45341 8.8654 2.46341 8.6442 2.47591 8.37753C2.52507 7.31253 2.69341 6.58753 2.94091 5.95003C3.19507 5.2917 3.53841 4.7342 4.09424 4.17837C4.65007 3.62253 5.20841 3.28003 5.86591 3.02503C6.50341 2.77753 7.22841 2.61003 8.29341 2.56003C8.56007 2.54816 8.78127 2.53847 9.00552 2.53062L9.1996 2.52433C9.69235 2.50969 10.2627 2.50302 11.3881 2.50086L13.4437 2.50073ZM12.4159 7.50003C9.65302 7.50003 7.41591 9.73956 7.41591 12.5C7.41591 15.2629 9.65545 17.5 12.4159 17.5C15.1788 17.5 17.4159 15.2605 17.4159 12.5C17.4159 9.73713 15.1763 7.50003 12.4159 7.50003ZM12.4159 9.50003C14.0728 9.50003 15.4159 10.8427 15.4159 12.5C15.4159 14.1569 14.0732 15.5 12.4159 15.5C10.759 15.5 9.41592 14.1574 9.41592 12.5C9.41592 10.8431 10.7585 9.50003 12.4159 9.50003ZM17.6659 6.00003C16.9766 6.00003 16.4159 6.55994 16.4159 7.24918C16.4159 7.93843 16.9758 8.4992 17.6659 8.4992C18.3551 8.4992 18.9159 7.9393 18.9159 7.24918C18.9159 6.55994 18.3542 5.99917 17.6659 6.00003Z" fill="white"/>
</svg>
