<svg width="20" height="19" viewBox="0 0 20 19" fill="none" xmlns="http://www.w3.org/2000/svg">
<path d="M4.94048 2.49993C4.94011 3.31424 4.44608 4.04702 3.69134 4.35273C2.9366 4.65845 2.07187 4.47605 1.5049 3.89155C0.93793 3.30704 0.78195 2.43715 1.1105 1.69207C1.43906 0.94699 2.18654 0.475499 3.00048 0.499929C4.08155 0.532379 4.94097 1.41837 4.94048 2.49993ZM5.00048 5.97993H1.00048V18.4999H5.00048V5.97993ZM11.3205 5.97993H7.34048V18.4999H11.2805V11.9299C11.2805 8.2699 16.0505 7.9299 16.0505 11.9299V18.4999H20.0005V10.5699C20.0005 4.39993 12.9405 4.62993 11.2805 7.6599L11.3205 5.97993Z" fill="white"/>
</svg>
