<svg width="21" height="17" viewBox="0 0 21 17" fill="none" xmlns="http://www.w3.org/2000/svg">
<path d="M20.6281 2.15605C19.8647 2.49375 19.0551 2.71555 18.2262 2.81411C19.0995 2.29132 19.753 1.4689 20.0649 0.500049C19.2443 0.987609 18.3461 1.33077 17.4094 1.51461C16.6187 0.671058 15.5136 0.193029 14.3574 0.194339C12.0482 0.194339 10.1753 2.06661 10.1753 4.37683C10.1753 4.70458 10.2129 5.02242 10.2832 5.32909C6.8061 5.15404 3.7257 3.49005 1.66241 0.959409C1.29092 1.59767 1.09568 2.32318 1.09667 3.06167C1.09667 4.51259 1.83523 5.79324 2.95712 6.543C2.293 6.522 1.64351 6.34264 1.06281 6.01973C1.06217 6.0373 1.06217 6.05487 1.06217 6.07148C1.06217 8.0984 2.50382 9.7892 4.41762 10.1731C4.05843 10.2703 3.68795 10.3194 3.31585 10.3191C3.0456 10.3191 2.78334 10.2942 2.52842 10.2453C3.06094 11.9065 4.60449 13.1159 6.43523 13.1491C4.95376 14.3118 3.12432 14.9426 1.24106 14.9399C0.907751 14.9402 0.574722 14.9205 0.243752 14.8811C2.15567 16.1102 4.38115 16.7625 6.65405 16.7601C14.3472 16.7601 18.5536 10.3875 18.5536 4.86111C18.5536 4.6803 18.5492 4.49886 18.5412 4.31997C19.3599 3.72845 20.0666 2.99567 20.6281 2.15605Z" fill="white"/>
</svg>
